# xmcd
#
# Track frame offsets:
#      150
#      15910
#      29335
#      42455
#      56330
#      68335
#      83705
#      95408
#      104935
#      118960
#      135985
#      147908
#      164110
#      177760
#      190130
# 
# Disc length: 2758 seconds
#
# Revision: 1
# Processed by: cddbd v1.4PL0 Copyright (c) Steve Scherf et al.
#
# Submitted via: FreeRIP 1.21
#
DISCID=ca0ac40f
DTITLE=George Jones - The Very Best Of George Jones - Disc 2
DYEAR=1900
DGENRE=Country
TTITLE0=I Don't Need Your Rockin' Chair
TTITLE1=The Window Up Above
TTITLE2=Same Ole Me
TTITLE3=Loving You Could Never Be Better
TTITLE4=Once You've Had The Best
TTITLE5=Shine On (Shine All Your Sweet Love On Me)
TTITLE6=A Picture Of Me (Without You)
TTITLE7=We Can Make It
TTITLE8=You've Still Got A Place In My Heart
TTITLE9=Bartender's Blues
TTITLE10=What My Woman Can't Do
TTITLE11=You Couldn't Get The Picture
TTITLE12=I'm Not Ready Yet
TTITLE13=The Door
TTITLE14=Tonight, The Bottle Let Me Down
EXTD=
EXTT0=
EXTT1=
EXTT2=
EXTT3=
EXTT4=
EXTT5=
EXTT6=
EXTT7=
EXTT8=
EXTT9=
EXTT10=
EXTT11=
EXTT12=
EXTT13=
EXTT14=
PLAYORDER=
